HIERARCHY
ROOT Hips
{
	OFFSET	0.00	0.00	0.00
	CHANNELS 6 Xposition Yposition Zposition Zrotation Xrotation Yrotation
	JOINT LeftUpLeg
	{
		OFFSET	 0.126116	-0.014019	-0.065224
		CHANNELS 3 Zrotation Xrotation Yrotation
		JOINT LeftLeg
		{
			OFFSET	 0.000000	 0.000000	 0.569914
			CHANNELS 3 Zrotation Xrotation Yrotation
			JOINT LeftFoot
			{
				OFFSET	 0.000000	 0.000000	 0.544423
				CHANNELS 3 Zrotation Xrotation Yrotation
				JOINT LeftToeBase
				{
					OFFSET	 0.000000	 0.000000	 0.207117
					CHANNELS 3 Zrotation Xrotation Yrotation
					End Site
					{
						OFFSET	 0.000000	 0.000000	 0.207117
					}
				}
			}
		}
	}
	JOINT RightUpLeg
	{
		OFFSET	-0.124023	-0.008373	-0.065224
		CHANNELS 3 Zrotation Xrotation Yrotation
		JOINT RightLeg
		{
			OFFSET	 0.000000	 0.000000	 0.570047
			CHANNELS 3 Zrotation Xrotation Yrotation
			JOINT RightFoot
			{
				OFFSET	 0.000000	 0.000000	 0.544354
				CHANNELS 3 Zrotation Xrotation Yrotation
				JOINT RightToeBase
				{
					OFFSET	 0.000000	 0.000000	 0.207540
					CHANNELS 3 Zrotation Xrotation Yrotation
					End Site
					{
						OFFSET	 0.000000	 0.000000	 0.207540
					}
				}
			}
		}
	}
	JOINT Spine
	{
		OFFSET	 0.000184	-0.007763	 0.117403
		CHANNELS 3 Zrotation Xrotation Yrotation
		JOINT Spine1
		{
			OFFSET	 0.000000	 0.000000	 0.137269
			CHANNELS 3 Zrotation Xrotation Yrotation
			JOINT Spine2
			{
				OFFSET	 0.000000	 0.000000	 0.156879
				CHANNELS 3 Zrotation Xrotation Yrotation
				JOINT LeftShoulder
				{
					OFFSET	 0.080501	-0.002496	 0.160144
					CHANNELS 3 Zrotation Xrotation Yrotation
					JOINT LeftArm
					{
						OFFSET	 0.000000	 0.000000	 0.164363
						CHANNELS 3 Zrotation Xrotation Yrotation
						JOINT LeftForeArm
						{
							OFFSET	 0.000000	 0.000000	 0.364576
							CHANNELS 3 Zrotation Xrotation Yrotation
							JOINT LeftHand
							{
								OFFSET	 0.000000	 0.000000	 0.360812
								CHANNELS 3 Zrotation Xrotation Yrotation
								JOINT LeftHandIndex1
								{
									OFFSET	 0.000000	 0.000000	 0.086006
									CHANNELS 3 Zrotation Xrotation Yrotation
									JOINT LeftHandIndex2
									{
										OFFSET	 0.000000	 0.000000	 0.047237
										CHANNELS 3 Zrotation Xrotation Yrotation
										JOINT LeftHandIndex3
										{
											OFFSET	-0.004284	-0.000551	 0.038165
											CHANNELS 3 Zrotation Xrotation Yrotation
											End Site
											{
												OFFSET	-0.004284	-0.000551	 0.038165
											}
										}
									}
								}
							}
						}
					}
				}
				JOINT Neck
				{
					OFFSET	 0.000000	 0.000000	 0.176489
					CHANNELS 3 Zrotation Xrotation Yrotation
					JOINT Head
					{
						OFFSET	 0.000000	-0.001747	 0.077940
						CHANNELS 3 Zrotation Xrotation Yrotation
						End Site
						{
							OFFSET	 0.000000	-0.001747	 0.077940
						}
					}
				}
				JOINT RightShoulder
				{
					OFFSET	-0.080363	 0.000306	 0.159706
					CHANNELS 3 Zrotation Xrotation Yrotation
					JOINT RightArm
					{
						OFFSET	 0.000000	 0.000000	 0.164196
						CHANNELS 3 Zrotation Xrotation Yrotation
						JOINT RightForeArm
						{
							OFFSET	 0.000000	 0.000000	 0.365611
							CHANNELS 3 Zrotation Xrotation Yrotation
							JOINT RightHand
							{
								OFFSET	 0.000000	 0.000000	 0.360648
								CHANNELS 3 Zrotation Xrotation Yrotation
								JOINT RightHandIndex1
								{
									OFFSET	 0.000000	 0.000000	 0.069977
									CHANNELS 3 Zrotation Xrotation Yrotation
									JOINT RightHandIndex2
									{
										OFFSET	 0.000000	 0.000000	 0.052305
										CHANNELS 3 Zrotation Xrotation Yrotation
										JOINT RightHandIndex3
										{
											OFFSET	 0.009002	-0.000782	 0.042196
											CHANNELS 3 Zrotation Xrotation Yrotation
											End Site
											{
												OFFSET	 0.009002	-0.000782	 0.042196
											}
										}
									}
								}
							}
						}
					}
				}
			}
		}
	}
}
MOTION
Frames:    6
Frame Time: 0.03333334
-0.716214	-1.662342	 1.273525	 179.759800	 0.593678	 1.585383	-37.603880	-4.245595	-176.990000	 6.109830	-12.354330	 1.735849	-17.432460	 70.175290	-3.089903	-2.385833	 28.452760	 0.000004	 27.730470	-3.193343	 173.892400	-19.714140	-8.065723	-1.246300	 21.729000	 67.940760	 1.777753	 2.384659	 28.388700	-0.000001	-5.380627	-0.427491	-2.326496	-5.075841	 14.628710	-2.897699	 12.788020	-18.833910	 9.552102	-91.776090	 78.527360	 179.999900	-8.237189	-9.403246	-0.148072	-5.450102	-4.330290	-24.060800	 4.976009	-25.678340	-6.257556	-4.131196	 21.524690	 0.986298	-5.167839	 0.733520	 3.519257	-1.378229	 35.397820	-2.634230	 0.000022	-3.783157	-0.089647	-13.889650	 9.030262	 1.102199	 89.782160	 78.203870	 180.000000	 6.315781	-2.726016	-5.463392	 6.920833	-3.587226	 31.163970	 12.369970	-27.275060	 27.310010	 5.715225	 19.176060	-3.692089	 5.027514	 0.245388	-9.378011	-2.350882	 35.473990	 5.254307
-0.717763	-1.658470	 1.275130	-176.994100	 5.647191	-1.363511	-34.170340	-4.020342	-177.565500	-0.805269	-0.514318	 0.010304	-12.984230	 48.497970	 1.587158	-2.385833	 28.452760	 0.000004	 26.708470	-11.626460	 178.342800	-4.655510	-19.145670	 2.055379	-14.625450	 80.060970	 24.918630	 2.384659	 28.388700	-0.000001	-9.884089	 6.379004	 3.606539	-5.411299	-7.654542	-15.535980	 13.596720	-8.992165	 16.724820	-91.776190	 78.527380	-180.000000	-34.586660	-0.506775	 2.689429	-7.537607	-6.428518	-40.339080	 6.524854	-27.322240	-4.998095	-4.131196	 21.524690	 0.986298	-5.167839	 0.733520	 3.519257	-1.378229	 35.397820	-2.634230	 1.631920	 7.217486	 0.254848	-12.900500	-8.565557	-4.322546	 89.782080	 78.203890	-180.000000	-5.833008	 1.472048	-12.130750	-2.058151	-13.706620	 41.714390	 11.352650	 30.320570	 62.319340	 5.715225	 19.176060	-3.692089	 5.027514	 0.245388	-9.378011	-2.350882	 35.473990	 5.254307
-0.714176	-1.653197	 1.274193	-176.465600	 6.138760	-2.364923	-33.210370	-7.858194	-177.144100	-0.428204	-8.373791	 0.221985	-14.602760	 50.013130	 3.806378	-2.385833	 28.452760	 0.000004	 29.434910	-13.651310	 179.883900	-5.193420	-22.898200	 2.226779	-45.022630	 85.442250	 56.049100	 2.384659	 28.388700	-0.000001	-11.443310	 6.307276	 4.486467	-6.630970	-7.465737	-16.265680	 13.752170	-8.993765	 16.814950	-91.776220	 78.527380	-180.000000	-35.733850	 4.782030	 13.475170	-10.385110	-7.904074	-59.325480	 5.575439	-28.124770	-4.676755	-4.131196	 21.524690	 0.986298	-5.167839	 0.733520	 3.519257	-1.378229	 35.397820	-2.634230	 1.514446	 8.082238	 0.846557	-12.642050	-9.383925	-4.448243	 89.782150	 78.203920	 180.000000	-7.184946	 5.747754	-15.949990	 0.647503	-17.021120	 53.596220	 13.696880	 32.655240	 59.340020	 5.715225	 19.176060	-3.692089	 5.027514	 0.245388	-9.378011	-2.350882	 35.473990	 5.254307
-0.708343	-1.644571	 1.272482	-176.293100	 6.268619	-2.900912	-33.089940	-10.596200	-176.970500	 1.023387	-16.606380	 0.851080	-18.200010	 53.381500	 6.899706	-2.385833	 28.452760	 0.000004	 32.248160	-15.708660	-178.635400	-6.552009	-26.749630	 1.960161	-130.855100	 87.473080	 142.869200	 2.384659	 28.388700	-0.000001	-13.282390	 5.317484	 4.829304	-8.433056	-3.115849	-17.110960	 14.511390	-10.895970	 17.492080	-91.776250	 78.527400	-180.000000	-30.564690	 12.020040	 26.856120	-13.722200	-8.496332	-81.095620	 5.103984	-28.601740	-4.476983	-4.131196	 21.524690	 0.986298	-5.167839	 0.733520	 3.519257	-1.378229	 35.397820	-2.634230	 1.354464	 7.924833	 1.333352	-12.444970	-8.736219	-4.191194	 89.782120	 78.203900	 180.000000	-8.480431	 13.336400	-19.052300	 5.359875	-19.292280	 68.359400	 13.155150	 26.454300	 51.024520	 5.715225	 19.176060	-3.692089	 5.027514	 0.245388	-9.378011	-2.350882	 35.473990	 5.254307
-0.696265	-1.623208	 1.269758	-176.327500	 7.166706	-3.089481	-34.926900	-12.287070	-177.569200	 3.807692	-26.639000	 2.589495	-25.693960	 57.934880	 13.319230	-2.385833	 28.452760	 0.000004	 33.952880	-20.318010	-175.301800	-6.745911	-32.741020	 2.249684	 128.407500	 87.394130	-116.877100	 2.384659	 28.388700	-0.000001	-17.547110	 2.648969	 3.485981	-12.736090	 8.365788	-17.968250	 17.359050	-16.613730	 20.548570	-91.776150	 78.527380	 180.000000	-10.733900	 34.303980	 34.421890	-17.180780	-7.274261	-106.387800	 4.353816	-29.358390	-4.192622	-4.131196	 21.524690	 0.986298	-5.167839	 0.733520	 3.519257	-1.378229	 35.397820	-2.634230	 1.631011	 8.170621	 1.212484	-12.358160	-9.351346	-4.366820	 89.782100	 78.203870	 180.000000	-12.998680	 35.328310	-16.750880	 11.002180	-20.743050	 84.857890	-2.624333	 14.373720	 45.375890	 5.715225	 19.176060	-3.692089	 5.027514	 0.245388	-9.378011	-2.350882	 35.473990	 5.254307
-0.680791	-1.592990	 1.267835	-176.759400	 9.995765	-2.484972	-38.053180	-11.970480	-179.515300	 5.009910	-32.923710	 3.797179	-31.325960	 60.387810	 18.740610	-2.385833	 28.452760	 0.000004	 36.298650	-26.248600	-170.154200	-6.110516	-36.639290	 2.862736	 45.870260	 78.817630	-37.162400	 2.384659	 28.388700	-0.000001	-22.630880	-1.034675	-2.153999	-19.288630	 18.986070	-12.700200	 19.742920	-22.533860	 21.212710	-91.776190	 78.527400	 180.000000	 25.695310	 48.852520	-10.789230	-15.420550	-7.275231	-92.937310	 4.102025	-29.835330	-4.128809	-4.131196	 21.524690	 0.986298	-5.167839	 0.733520	 3.519257	-1.378229	 35.397820	-2.634230	 1.885538	 8.304711	 0.798622	-12.361200	-9.587108	-4.125774	 89.782090	 78.280070	-179.970800	-24.852860	 61.078100	 1.337357	 6.681318	-20.759140	 73.100050	-29.817100	-4.123652	 52.428520	 5.715225	 19.176060	-3.692089	 5.027514	 0.245388	-9.378011	-2.350882	 35.473990	 5.254307
